solid OpenSCAD_Model
  facet normal -1 0 0
    outer loop
      vertex 0 10 2
      vertex 0 12 6.5
      vertex 0 12 0
    endloop
  endfacet
  facet normal -1 0 0
    outer loop
      vertex 0 10 8.5
      vertex 0 12 6.5
      vertex 0 10 2
    endloop
  endfacet
  facet normal -1 0 0
    outer loop
      vertex 0 0 0
      vertex 0 10 2
      vertex 0 12 0
    endloop
  endfacet
  facet normal -1 -0 0
    outer loop
      vertex 0 10 2
      vertex 0 0 0
      vertex 0 0 2
    endloop
  endfacet
  facet normal -1 0 0
    outer loop
      vertex 0 12 6.5
      vertex 0 14 6.6906
      vertex 0 14 6.5
    endloop
  endfacet
  facet normal -1 -0 0
    outer loop
      vertex 0 14 6.6906
      vertex 0 12 6.5
      vertex 0 10.866 8.5
    endloop
  endfacet
  facet normal -1 0 0
    outer loop
      vertex 0 12 6.5
      vertex 0 10 8.5
      vertex 0 10.866 8.5
    endloop
  endfacet
  facet normal -0 0 1
    outer loop
      vertex 0 10.866 8.5
      vertex 10 10 8.5
      vertex 10 10.866 8.5
    endloop
  endfacet
  facet normal 0 0 1
    outer loop
      vertex 10 10 8.5
      vertex 0 10.866 8.5
      vertex 0 10 8.5
    endloop
  endfacet
  facet normal 1 0 0
    outer loop
      vertex 10 14 6.6906
      vertex 10 12 6.5
      vertex 10 14 6.5
    endloop
  endfacet
  facet normal 1 0 0
    outer loop
      vertex 10 10.866 8.5
      vertex 10 12 6.5
      vertex 10 14 6.6906
    endloop
  endfacet
  facet normal 1 -0 0
    outer loop
      vertex 10 10 8.5
      vertex 10 12 6.5
      vertex 10 10.866 8.5
    endloop
  endfacet
  facet normal 1 0 0
    outer loop
      vertex 10 12 6.5
      vertex 10 10 8.5
      vertex 10 10 2
    endloop
  endfacet
  facet normal 1 0 0
    outer loop
      vertex 10 12 6.5
      vertex 10 10 2
      vertex 10 12 0
    endloop
  endfacet
  facet normal 1 0 0
    outer loop
      vertex 10 0 0
      vertex 10 10 2
      vertex 10 0 2
    endloop
  endfacet
  facet normal 1 0 0
    outer loop
      vertex 10 10 2
      vertex 10 0 0
      vertex 10 12 0
    endloop
  endfacet
  facet normal 0 0 -1
    outer loop
      vertex 0 12 6.5
      vertex 10 14 6.5
      vertex 10 12 6.5
    endloop
  endfacet
  facet normal -0 0 -1
    outer loop
      vertex 10 14 6.5
      vertex 0 12 6.5
      vertex 0 14 6.5
    endloop
  endfacet
  facet normal 0 -1 0
    outer loop
      vertex 0 10 2
      vertex 10 10 8.5
      vertex 0 10 8.5
    endloop
  endfacet
  facet normal 0 -1 -0
    outer loop
      vertex 10 10 8.5
      vertex 0 10 2
      vertex 10 10 2
    endloop
  endfacet
  facet normal 0 1 -0
    outer loop
      vertex 10 14 6.5
      vertex 0 14 6.6906
      vertex 10 14 6.6906
    endloop
  endfacet
  facet normal 0 1 0
    outer loop
      vertex 0 14 6.6906
      vertex 10 14 6.5
      vertex 0 14 6.5
    endloop
  endfacet
  facet normal -0 0.5 0.866025
    outer loop
      vertex 0 14 6.6906
      vertex 10 10.866 8.5
      vertex 10 14 6.6906
    endloop
  endfacet
  facet normal 0 0.5 0.866025
    outer loop
      vertex 10 10.866 8.5
      vertex 0 14 6.6906
      vertex 0 10.866 8.5
    endloop
  endfacet
  facet normal 0 0 1
    outer loop
      vertex 10 10 2
      vertex 6.5 5 2
      vertex 10 0 2
    endloop
  endfacet
  facet normal 0 0 1
    outer loop
      vertex 10 10 2
      vertex 6.45287 5.37303 2
      vertex 6.5 5 2
    endloop
  endfacet
  facet normal 0 0 1
    outer loop
      vertex 10 10 2
      vertex 6.31446 5.72263 2
      vertex 6.45287 5.37303 2
    endloop
  endfacet
  facet normal 0 0 1
    outer loop
      vertex 10 10 2
      vertex 6.09345 6.02682 2
      vertex 6.31446 5.72263 2
    endloop
  endfacet
  facet normal 0 0 1
    outer loop
      vertex 10 10 2
      vertex 5.80374 6.26649 2
      vertex 6.09345 6.02682 2
    endloop
  endfacet
  facet normal 0 0 1
    outer loop
      vertex 10 10 2
      vertex 5.46352 6.42658 2
      vertex 5.80374 6.26649 2
    endloop
  endfacet
  facet normal 0 0 1
    outer loop
      vertex 10 10 2
      vertex 5.09418 6.49704 2
      vertex 5.46352 6.42658 2
    endloop
  endfacet
  facet normal -0 0 1
    outer loop
      vertex 0 10 2
      vertex 5.09418 6.49704 2
      vertex 10 10 2
    endloop
  endfacet
  facet normal 0 0 1
    outer loop
      vertex 5.09418 6.49704 2
      vertex 0 10 2
      vertex 4.71893 6.47343 2
    endloop
  endfacet
  facet normal 0 0 1
    outer loop
      vertex 4.71893 6.47343 2
      vertex 0 10 2
      vertex 4.36133 6.35724 2
    endloop
  endfacet
  facet normal 0 0 1
    outer loop
      vertex 3.51183 5.188 2
      vertex 0 10 2
      vertex 3.51183 4.812 2
    endloop
  endfacet
  facet normal 0 0 1
    outer loop
      vertex 3.60534 5.55219 2
      vertex 0 10 2
      vertex 3.51183 5.188 2
    endloop
  endfacet
  facet normal 0 0 1
    outer loop
      vertex 3.78647 5.88168 2
      vertex 0 10 2
      vertex 3.60534 5.55219 2
    endloop
  endfacet
  facet normal 0 0 1
    outer loop
      vertex 4.04386 6.15577 2
      vertex 0 10 2
      vertex 3.78647 5.88168 2
    endloop
  endfacet
  facet normal 0 0 1
    outer loop
      vertex 4.36133 6.35724 2
      vertex 0 10 2
      vertex 4.04386 6.15577 2
    endloop
  endfacet
  facet normal -0 0 1
    outer loop
      vertex 6.45287 4.62696 2
      vertex 10 0 2
      vertex 6.5 5 2
    endloop
  endfacet
  facet normal -0 0 1
    outer loop
      vertex 6.31446 4.27737 2
      vertex 10 0 2
      vertex 6.45287 4.62696 2
    endloop
  endfacet
  facet normal -0 0 1
    outer loop
      vertex 6.09345 3.97318 2
      vertex 10 0 2
      vertex 6.31446 4.27737 2
    endloop
  endfacet
  facet normal -0 0 1
    outer loop
      vertex 5.80374 3.73351 2
      vertex 10 0 2
      vertex 6.09345 3.97318 2
    endloop
  endfacet
  facet normal -0 0 1
    outer loop
      vertex 5.46352 3.57341 2
      vertex 10 0 2
      vertex 5.80374 3.73351 2
    endloop
  endfacet
  facet normal -0 0 1
    outer loop
      vertex 5.09418 3.50296 2
      vertex 10 0 2
      vertex 5.46352 3.57341 2
    endloop
  endfacet
  facet normal 0 0 1
    outer loop
      vertex 0 0 2
      vertex 5.09418 3.50296 2
      vertex 4.71893 3.52657 2
    endloop
  endfacet
  facet normal 0 0 1
    outer loop
      vertex 0 0 2
      vertex 4.71893 3.52657 2
      vertex 4.36133 3.64276 2
    endloop
  endfacet
  facet normal 0 0 1
    outer loop
      vertex 0 0 2
      vertex 4.36133 3.64276 2
      vertex 4.04386 3.84423 2
    endloop
  endfacet
  facet normal 0 0 1
    outer loop
      vertex 0 0 2
      vertex 3.51183 4.812 2
      vertex 0 10 2
    endloop
  endfacet
  facet normal 0 0 1
    outer loop
      vertex 3.51183 4.812 2
      vertex 0 0 2
      vertex 3.60534 4.44781 2
    endloop
  endfacet
  facet normal 0 0 1
    outer loop
      vertex 5.09418 3.50296 2
      vertex 0 0 2
      vertex 10 0 2
    endloop
  endfacet
  facet normal 0 0 1
    outer loop
      vertex 3.78647 4.11832 2
      vertex 0 0 2
      vertex 4.04386 3.84423 2
    endloop
  endfacet
  facet normal 0 0 1
    outer loop
      vertex 3.60534 4.44781 2
      vertex 0 0 2
      vertex 3.78647 4.11832 2
    endloop
  endfacet
  facet normal 0 0 -1
    outer loop
      vertex 10 0 0
      vertex 6.5 5 0
      vertex 10 12 0
    endloop
  endfacet
  facet normal 0 0 -1
    outer loop
      vertex 10 0 0
      vertex 6.45287 4.62696 0
      vertex 6.5 5 0
    endloop
  endfacet
  facet normal 0 0 -1
    outer loop
      vertex 10 0 0
      vertex 6.31446 4.27737 0
      vertex 6.45287 4.62696 0
    endloop
  endfacet
  facet normal 0 0 -1
    outer loop
      vertex 10 0 0
      vertex 6.09345 3.97318 0
      vertex 6.31446 4.27737 0
    endloop
  endfacet
  facet normal 0 0 -1
    outer loop
      vertex 10 0 0
      vertex 5.80374 3.73351 0
      vertex 6.09345 3.97318 0
    endloop
  endfacet
  facet normal 0 0 -1
    outer loop
      vertex 10 0 0
      vertex 5.46352 3.57341 0
      vertex 5.80374 3.73351 0
    endloop
  endfacet
  facet normal 0 0 -1
    outer loop
      vertex 10 0 0
      vertex 5.09418 3.50296 0
      vertex 5.46352 3.57341 0
    endloop
  endfacet
  facet normal 0 0 -1
    outer loop
      vertex 0 0 0
      vertex 5.09418 3.50296 0
      vertex 10 0 0
    endloop
  endfacet
  facet normal -0 0 -1
    outer loop
      vertex 5.09418 3.50296 0
      vertex 0 0 0
      vertex 4.71893 3.52657 0
    endloop
  endfacet
  facet normal -0 0 -1
    outer loop
      vertex 4.71893 3.52657 0
      vertex 0 0 0
      vertex 4.36133 3.64276 0
    endloop
  endfacet
  facet normal -0 0 -1
    outer loop
      vertex 3.51183 4.812 0
      vertex 0 0 0
      vertex 3.51183 5.188 0
    endloop
  endfacet
  facet normal -0 0 -1
    outer loop
      vertex 3.60534 4.44781 0
      vertex 0 0 0
      vertex 3.51183 4.812 0
    endloop
  endfacet
  facet normal -0 0 -1
    outer loop
      vertex 3.78647 4.11832 0
      vertex 0 0 0
      vertex 3.60534 4.44781 0
    endloop
  endfacet
  facet normal -0 0 -1
    outer loop
      vertex 4.04386 3.84423 0
      vertex 0 0 0
      vertex 3.78647 4.11832 0
    endloop
  endfacet
  facet normal -0 0 -1
    outer loop
      vertex 4.36133 3.64276 0
      vertex 0 0 0
      vertex 4.04386 3.84423 0
    endloop
  endfacet
  facet normal 0 0 -1
    outer loop
      vertex 6.45287 5.37303 0
      vertex 10 12 0
      vertex 6.5 5 0
    endloop
  endfacet
  facet normal 0 0 -1
    outer loop
      vertex 6.31446 5.72263 0
      vertex 10 12 0
      vertex 6.45287 5.37303 0
    endloop
  endfacet
  facet normal 0 0 -1
    outer loop
      vertex 6.09345 6.02682 0
      vertex 10 12 0
      vertex 6.31446 5.72263 0
    endloop
  endfacet
  facet normal 0 0 -1
    outer loop
      vertex 5.80374 6.26649 0
      vertex 10 12 0
      vertex 6.09345 6.02682 0
    endloop
  endfacet
  facet normal 0 0 -1
    outer loop
      vertex 5.46352 6.42658 0
      vertex 10 12 0
      vertex 5.80374 6.26649 0
    endloop
  endfacet
  facet normal 0 0 -1
    outer loop
      vertex 5.09418 6.49704 0
      vertex 10 12 0
      vertex 5.46352 6.42658 0
    endloop
  endfacet
  facet normal 0 0 -1
    outer loop
      vertex 0 12 0
      vertex 5.09418 6.49704 0
      vertex 4.71893 6.47343 0
    endloop
  endfacet
  facet normal 0 0 -1
    outer loop
      vertex 0 12 0
      vertex 4.71893 6.47343 0
      vertex 4.36133 6.35724 0
    endloop
  endfacet
  facet normal 0 0 -1
    outer loop
      vertex 0 12 0
      vertex 4.36133 6.35724 0
      vertex 4.04386 6.15577 0
    endloop
  endfacet
  facet normal 0 0 -1
    outer loop
      vertex 0 12 0
      vertex 3.51183 5.188 0
      vertex 0 0 0
    endloop
  endfacet
  facet normal 0 0 -1
    outer loop
      vertex 3.51183 5.188 0
      vertex 0 12 0
      vertex 3.60534 5.55219 0
    endloop
  endfacet
  facet normal 0 0 -1
    outer loop
      vertex 5.09418 6.49704 0
      vertex 0 12 0
      vertex 10 12 0
    endloop
  endfacet
  facet normal 0 0 -1
    outer loop
      vertex 3.78647 5.88168 0
      vertex 0 12 0
      vertex 4.04386 6.15577 0
    endloop
  endfacet
  facet normal 0 0 -1
    outer loop
      vertex 3.60534 5.55219 0
      vertex 0 12 0
      vertex 3.78647 5.88168 0
    endloop
  endfacet
  facet normal 0 -1 0
    outer loop
      vertex 0 0 0
      vertex 10 0 2
      vertex 0 0 2
    endloop
  endfacet
  facet normal 0 -1 -0
    outer loop
      vertex 10 0 2
      vertex 0 0 0
      vertex 10 0 0
    endloop
  endfacet
  facet normal 0 1 -0
    outer loop
      vertex 10 12 0
      vertex 0 12 6.5
      vertex 10 12 6.5
    endloop
  endfacet
  facet normal 0 1 0
    outer loop
      vertex 0 12 6.5
      vertex 10 12 0
      vertex 0 12 0
    endloop
  endfacet
  facet normal -0.992115 -0.125335 0
    outer loop
      vertex 6.5 5 0
      vertex 6.45287 5.37303 2
      vertex 6.45287 5.37303 0
    endloop
  endfacet
  facet normal -0.992115 -0.125335 0
    outer loop
      vertex 6.45287 5.37303 2
      vertex 6.5 5 0
      vertex 6.5 5 2
    endloop
  endfacet
  facet normal 1 -0 0
    outer loop
      vertex 3.51183 4.812 2
      vertex 3.51183 5.188 0
      vertex 3.51183 5.188 2
    endloop
  endfacet
  facet normal 1 0 0
    outer loop
      vertex 3.51183 5.188 0
      vertex 3.51183 4.812 2
      vertex 3.51183 4.812 0
    endloop
  endfacet
  facet normal 0.0627904 -0.998027 0
    outer loop
      vertex 4.71893 6.47343 0
      vertex 5.09418 6.49704 2
      vertex 4.71893 6.47343 2
    endloop
  endfacet
  facet normal 0.0627904 -0.998027 0
    outer loop
      vertex 5.09418 6.49704 2
      vertex 4.71893 6.47343 0
      vertex 5.09418 6.49704 0
    endloop
  endfacet
  facet normal -0.637423 -0.770514 0
    outer loop
      vertex 5.80374 6.26649 0
      vertex 6.09345 6.02682 2
      vertex 5.80374 6.26649 2
    endloop
  endfacet
  facet normal -0.637423 -0.770514 -0
    outer loop
      vertex 6.09345 6.02682 2
      vertex 5.80374 6.26649 0
      vertex 6.09345 6.02682 0
    endloop
  endfacet
  facet normal -0.929777 -0.368123 0
    outer loop
      vertex 6.45287 5.37303 0
      vertex 6.31446 5.72263 2
      vertex 6.31446 5.72263 0
    endloop
  endfacet
  facet normal -0.929777 -0.368123 0
    outer loop
      vertex 6.31446 5.72263 2
      vertex 6.45287 5.37303 0
      vertex 6.45287 5.37303 2
    endloop
  endfacet
  facet normal -0.42578 -0.904827 0
    outer loop
      vertex 5.46352 6.42658 0
      vertex 5.80374 6.26649 2
      vertex 5.46352 6.42658 2
    endloop
  endfacet
  facet normal -0.42578 -0.904827 -0
    outer loop
      vertex 5.80374 6.26649 2
      vertex 5.46352 6.42658 0
      vertex 5.80374 6.26649 0
    endloop
  endfacet
  facet normal 0.728969 -0.684547 0
    outer loop
      vertex 3.78647 5.88168 2
      vertex 4.04386 6.15577 0
      vertex 4.04386 6.15577 2
    endloop
  endfacet
  facet normal 0.728969 -0.684547 0
    outer loop
      vertex 4.04386 6.15577 0
      vertex 3.78647 5.88168 2
      vertex 3.78647 5.88168 0
    endloop
  endfacet
  facet normal 0.535825 -0.844329 0
    outer loop
      vertex 4.04386 6.15577 0
      vertex 4.36133 6.35724 2
      vertex 4.04386 6.15577 2
    endloop
  endfacet
  facet normal 0.535825 -0.844329 0
    outer loop
      vertex 4.36133 6.35724 2
      vertex 4.04386 6.15577 0
      vertex 4.36133 6.35724 0
    endloop
  endfacet
  facet normal -0.809016 0.587786 0
    outer loop
      vertex 6.09345 3.97318 0
      vertex 6.31446 4.27737 2
      vertex 6.31446 4.27737 0
    endloop
  endfacet
  facet normal -0.809016 0.587786 0
    outer loop
      vertex 6.31446 4.27737 2
      vertex 6.09345 3.97318 0
      vertex 6.09345 3.97318 2
    endloop
  endfacet
  facet normal -0.929777 0.368123 0
    outer loop
      vertex 6.31446 4.27737 0
      vertex 6.45287 4.62696 2
      vertex 6.45287 4.62696 0
    endloop
  endfacet
  facet normal -0.929777 0.368123 0
    outer loop
      vertex 6.45287 4.62696 2
      vertex 6.31446 4.27737 0
      vertex 6.31446 4.27737 2
    endloop
  endfacet
  facet normal -0.809016 -0.587786 0
    outer loop
      vertex 6.31446 5.72263 0
      vertex 6.09345 6.02682 2
      vertex 6.09345 6.02682 0
    endloop
  endfacet
  facet normal -0.809016 -0.587786 0
    outer loop
      vertex 6.09345 6.02682 2
      vertex 6.31446 5.72263 0
      vertex 6.31446 5.72263 2
    endloop
  endfacet
  facet normal -0.187382 -0.982287 0
    outer loop
      vertex 5.09418 6.49704 0
      vertex 5.46352 6.42658 2
      vertex 5.09418 6.49704 2
    endloop
  endfacet
  facet normal -0.187382 -0.982287 -0
    outer loop
      vertex 5.46352 6.42658 2
      vertex 5.09418 6.49704 0
      vertex 5.46352 6.42658 0
    endloop
  endfacet
  facet normal 0.876307 -0.481753 0
    outer loop
      vertex 3.60534 5.55219 2
      vertex 3.78647 5.88168 0
      vertex 3.78647 5.88168 2
    endloop
  endfacet
  facet normal 0.876307 -0.481753 0
    outer loop
      vertex 3.78647 5.88168 0
      vertex 3.60534 5.55219 2
      vertex 3.60534 5.55219 0
    endloop
  endfacet
  facet normal 0.968583 -0.248691 0
    outer loop
      vertex 3.51183 5.188 2
      vertex 3.60534 5.55219 0
      vertex 3.60534 5.55219 2
    endloop
  endfacet
  facet normal 0.968583 -0.248691 0
    outer loop
      vertex 3.60534 5.55219 0
      vertex 3.51183 5.188 2
      vertex 3.51183 5.188 0
    endloop
  endfacet
  facet normal 0.309019 -0.951056 0
    outer loop
      vertex 4.36133 6.35724 0
      vertex 4.71893 6.47343 2
      vertex 4.36133 6.35724 2
    endloop
  endfacet
  facet normal 0.309019 -0.951056 0
    outer loop
      vertex 4.71893 6.47343 2
      vertex 4.36133 6.35724 0
      vertex 4.71893 6.47343 0
    endloop
  endfacet
  facet normal -0.187382 0.982287 0
    outer loop
      vertex 5.46352 3.57341 0
      vertex 5.09418 3.50296 2
      vertex 5.46352 3.57341 2
    endloop
  endfacet
  facet normal -0.187382 0.982287 0
    outer loop
      vertex 5.09418 3.50296 2
      vertex 5.46352 3.57341 0
      vertex 5.09418 3.50296 0
    endloop
  endfacet
  facet normal -0.637423 0.770514 0
    outer loop
      vertex 6.09345 3.97318 0
      vertex 5.80374 3.73351 2
      vertex 6.09345 3.97318 2
    endloop
  endfacet
  facet normal -0.637423 0.770514 0
    outer loop
      vertex 5.80374 3.73351 2
      vertex 6.09345 3.97318 0
      vertex 5.80374 3.73351 0
    endloop
  endfacet
  facet normal 0.535825 0.844329 -0
    outer loop
      vertex 4.36133 3.64276 0
      vertex 4.04386 3.84423 2
      vertex 4.36133 3.64276 2
    endloop
  endfacet
  facet normal 0.535825 0.844329 0
    outer loop
      vertex 4.04386 3.84423 2
      vertex 4.36133 3.64276 0
      vertex 4.04386 3.84423 0
    endloop
  endfacet
  facet normal 0.0627904 0.998027 -0
    outer loop
      vertex 5.09418 3.50296 0
      vertex 4.71893 3.52657 2
      vertex 5.09418 3.50296 2
    endloop
  endfacet
  facet normal 0.0627904 0.998027 0
    outer loop
      vertex 4.71893 3.52657 2
      vertex 5.09418 3.50296 0
      vertex 4.71893 3.52657 0
    endloop
  endfacet
  facet normal 0.728969 0.684547 0
    outer loop
      vertex 4.04386 3.84423 2
      vertex 3.78647 4.11832 0
      vertex 3.78647 4.11832 2
    endloop
  endfacet
  facet normal 0.728969 0.684547 0
    outer loop
      vertex 3.78647 4.11832 0
      vertex 4.04386 3.84423 2
      vertex 4.04386 3.84423 0
    endloop
  endfacet
  facet normal 0.968583 0.248691 0
    outer loop
      vertex 3.60534 4.44781 2
      vertex 3.51183 4.812 0
      vertex 3.51183 4.812 2
    endloop
  endfacet
  facet normal 0.968583 0.248691 0
    outer loop
      vertex 3.51183 4.812 0
      vertex 3.60534 4.44781 2
      vertex 3.60534 4.44781 0
    endloop
  endfacet
  facet normal -0.992115 0.125334 0
    outer loop
      vertex 6.45287 4.62696 0
      vertex 6.5 5 2
      vertex 6.5 5 0
    endloop
  endfacet
  facet normal -0.992115 0.125334 0
    outer loop
      vertex 6.5 5 2
      vertex 6.45287 4.62696 0
      vertex 6.45287 4.62696 2
    endloop
  endfacet
  facet normal -0.42578 0.904827 0
    outer loop
      vertex 5.80374 3.73351 0
      vertex 5.46352 3.57341 2
      vertex 5.80374 3.73351 2
    endloop
  endfacet
  facet normal -0.42578 0.904827 0
    outer loop
      vertex 5.46352 3.57341 2
      vertex 5.80374 3.73351 0
      vertex 5.46352 3.57341 0
    endloop
  endfacet
  facet normal 0.309019 0.951056 -0
    outer loop
      vertex 4.71893 3.52657 0
      vertex 4.36133 3.64276 2
      vertex 4.71893 3.52657 2
    endloop
  endfacet
  facet normal 0.309019 0.951056 0
    outer loop
      vertex 4.36133 3.64276 2
      vertex 4.71893 3.52657 0
      vertex 4.36133 3.64276 0
    endloop
  endfacet
  facet normal 0.876307 0.481753 0
    outer loop
      vertex 3.78647 4.11832 2
      vertex 3.60534 4.44781 0
      vertex 3.60534 4.44781 2
    endloop
  endfacet
  facet normal 0.876307 0.481753 0
    outer loop
      vertex 3.60534 4.44781 0
      vertex 3.78647 4.11832 2
      vertex 3.78647 4.11832 0
    endloop
  endfacet
endsolid OpenSCAD_Model
