solid OpenSCAD_Model
  facet normal -1 0 0
    outer loop
      vertex 0 10 2
      vertex 0 12 6.5
      vertex 0 12 0
    endloop
  endfacet
  facet normal -1 0 0
    outer loop
      vertex 0 10 8.5
      vertex 0 12 6.5
      vertex 0 10 2
    endloop
  endfacet
  facet normal -1 0 0
    outer loop
      vertex 0 0 0
      vertex 0 10 2
      vertex 0 12 0
    endloop
  endfacet
  facet normal -1 -0 0
    outer loop
      vertex 0 10 2
      vertex 0 0 0
      vertex 0 0 2
    endloop
  endfacet
  facet normal -1 0 0
    outer loop
      vertex 0 15.995 6.5
      vertex 0 12 6.5
      vertex 0 10.5 8.5
    endloop
  endfacet
  facet normal -1 0 0
    outer loop
      vertex 0 12 6.5
      vertex 0 10 8.5
      vertex 0 10.5 8.5
    endloop
  endfacet
  facet normal -0 0 1
    outer loop
      vertex 0 10.5 8.5
      vertex 10 10 8.5
      vertex 10 10.5 8.5
    endloop
  endfacet
  facet normal 0 0 1
    outer loop
      vertex 10 10 8.5
      vertex 0 10.5 8.5
      vertex 0 10 8.5
    endloop
  endfacet
  facet normal 1 0 0
    outer loop
      vertex 10 10.5 8.5
      vertex 10 12 6.5
      vertex 10 15.995 6.5
    endloop
  endfacet
  facet normal 1 -0 0
    outer loop
      vertex 10 10 8.5
      vertex 10 12 6.5
      vertex 10 10.5 8.5
    endloop
  endfacet
  facet normal 1 0 0
    outer loop
      vertex 10 12 6.5
      vertex 10 10 8.5
      vertex 10 10 2
    endloop
  endfacet
  facet normal 1 0 0
    outer loop
      vertex 10 12 6.5
      vertex 10 10 2
      vertex 10 12 0
    endloop
  endfacet
  facet normal 1 0 0
    outer loop
      vertex 10 0 0
      vertex 10 10 2
      vertex 10 0 2
    endloop
  endfacet
  facet normal 1 0 0
    outer loop
      vertex 10 10 2
      vertex 10 0 0
      vertex 10 12 0
    endloop
  endfacet
  facet normal 0 0 -1
    outer loop
      vertex 0 12 6.5
      vertex 10 15.995 6.5
      vertex 10 12 6.5
    endloop
  endfacet
  facet normal -0 0 -1
    outer loop
      vertex 10 15.995 6.5
      vertex 0 12 6.5
      vertex 0 15.995 6.5
    endloop
  endfacet
  facet normal 0 -1 0
    outer loop
      vertex 0 10 2
      vertex 10 10 8.5
      vertex 0 10 8.5
    endloop
  endfacet
  facet normal 0 -1 -0
    outer loop
      vertex 10 10 8.5
      vertex 0 10 2
      vertex 10 10 2
    endloop
  endfacet
  facet normal -0 0.34202 0.939693
    outer loop
      vertex 0 15.995 6.5
      vertex 10 10.5 8.5
      vertex 10 15.995 6.5
    endloop
  endfacet
  facet normal 0 0.34202 0.939693
    outer loop
      vertex 10 10.5 8.5
      vertex 0 15.995 6.5
      vertex 0 10.5 8.5
    endloop
  endfacet
  facet normal 0 0 1
    outer loop
      vertex 10 10 2
      vertex 7.24763 5 2
      vertex 10 0 2
    endloop
  endfacet
  facet normal 0 0 1
    outer loop
      vertex 10 10 2
      vertex 7.17728 5.5569 2
      vertex 7.24763 5 2
    endloop
  endfacet
  facet normal 0 0 1
    outer loop
      vertex 10 10 2
      vertex 7.17702 5.55896 2
      vertex 7.17728 5.5569 2
    endloop
  endfacet
  facet normal 0 0 1
    outer loop
      vertex 10 10 2
      vertex 7.17625 5.5609 2
      vertex 7.17702 5.55896 2
    endloop
  endfacet
  facet normal 0 0 1
    outer loop
      vertex 10 10 2
      vertex 6.96961 6.0828 2
      vertex 7.17625 5.5609 2
    endloop
  endfacet
  facet normal 0 0 1
    outer loop
      vertex 10 10 2
      vertex 6.96839 6.08449 2
      vertex 6.96961 6.0828 2
    endloop
  endfacet
  facet normal 0 0 1
    outer loop
      vertex 10 10 2
      vertex 6.63845 6.53861 2
      vertex 6.96839 6.08449 2
    endloop
  endfacet
  facet normal 0 0 1
    outer loop
      vertex 10 10 2
      vertex 6.20594 6.89641 2
      vertex 6.63845 6.53861 2
    endloop
  endfacet
  facet normal 0 0 1
    outer loop
      vertex 10 10 2
      vertex 6.20434 6.89774 2
      vertex 6.20594 6.89641 2
    endloop
  endfacet
  facet normal 0 0 1
    outer loop
      vertex 10 10 2
      vertex 6.20246 6.89862 2
      vertex 6.20434 6.89774 2
    endloop
  endfacet
  facet normal 0 0 1
    outer loop
      vertex 10 10 2
      vertex 5.69456 7.13762 2
      vertex 6.20246 6.89862 2
    endloop
  endfacet
  facet normal 0 0 1
    outer loop
      vertex 10 10 2
      vertex 5.69251 7.13801 2
      vertex 5.69456 7.13762 2
    endloop
  endfacet
  facet normal 0 0 1
    outer loop
      vertex 10 10 2
      vertex 5.14113 7.2432 2
      vertex 5.69251 7.13801 2
    endloop
  endfacet
  facet normal -0 0 1
    outer loop
      vertex 0 10 2
      vertex 5.14113 7.2432 2
      vertex 10 10 2
    endloop
  endfacet
  facet normal 0 0 1
    outer loop
      vertex 5.14113 7.2432 2
      vertex 0 10 2
      vertex 4.58091 7.20795 2
    endloop
  endfacet
  facet normal 0 0 1
    outer loop
      vertex 4.58091 7.20795 2
      vertex 0 10 2
      vertex 4.57884 7.20782 2
    endloop
  endfacet
  facet normal 0 0 1
    outer loop
      vertex 4.57884 7.20782 2
      vertex 0 10 2
      vertex 4.57686 7.20718 2
    endloop
  endfacet
  facet normal 0 0 1
    outer loop
      vertex 0 10 2
      vertex 3.18305 6.32264 2
      vertex 3.56731 6.73183 2
    endloop
  endfacet
  facet normal 0 0 1
    outer loop
      vertex 0 10 2
      vertex 3.18063 6.3193 2
      vertex 3.18163 6.32112 2
    endloop
  endfacet
  facet normal 0 0 1
    outer loop
      vertex 2.77009 5.2817 2
      vertex 0 10 2
      vertex 2.77009 4.7183 2
    endloop
  endfacet
  facet normal 0 0 1
    outer loop
      vertex 2.77061 5.28372 2
      vertex 0 10 2
      vertex 2.77009 5.2817 2
    endloop
  endfacet
  facet normal 0 0 1
    outer loop
      vertex 2.91021 5.82741 2
      vertex 0 10 2
      vertex 2.77061 5.28372 2
    endloop
  endfacet
  facet normal 0 0 1
    outer loop
      vertex 3.18063 6.3193 2
      vertex 0 10 2
      vertex 2.91021 5.82741 2
    endloop
  endfacet
  facet normal 0 0 1
    outer loop
      vertex 3.18305 6.32264 2
      vertex 0 10 2
      vertex 3.18163 6.32112 2
    endloop
  endfacet
  facet normal 0 0 1
    outer loop
      vertex 4.04125 7.0326 2
      vertex 0 10 2
      vertex 3.56731 6.73183 2
    endloop
  endfacet
  facet normal 0 0 1
    outer loop
      vertex 4.043 7.03372 2
      vertex 0 10 2
      vertex 4.04125 7.0326 2
    endloop
  endfacet
  facet normal 0 0 1
    outer loop
      vertex 4.57686 7.20718 2
      vertex 0 10 2
      vertex 4.043 7.03372 2
    endloop
  endfacet
  facet normal -0 0 1
    outer loop
      vertex 7.17728 4.4431 2
      vertex 10 0 2
      vertex 7.24763 5 2
    endloop
  endfacet
  facet normal -0 0 1
    outer loop
      vertex 7.17702 4.44104 2
      vertex 10 0 2
      vertex 7.17728 4.4431 2
    endloop
  endfacet
  facet normal -0 0 1
    outer loop
      vertex 7.17625 4.4391 2
      vertex 10 0 2
      vertex 7.17702 4.44104 2
    endloop
  endfacet
  facet normal -0 0 1
    outer loop
      vertex 6.96961 3.9172 2
      vertex 10 0 2
      vertex 7.17625 4.4391 2
    endloop
  endfacet
  facet normal -0 0 1
    outer loop
      vertex 6.96839 3.91551 2
      vertex 10 0 2
      vertex 6.96961 3.9172 2
    endloop
  endfacet
  facet normal -0 0 1
    outer loop
      vertex 6.63845 3.46139 2
      vertex 10 0 2
      vertex 6.96839 3.91551 2
    endloop
  endfacet
  facet normal -0 0 1
    outer loop
      vertex 6.20594 3.10359 2
      vertex 10 0 2
      vertex 6.63845 3.46139 2
    endloop
  endfacet
  facet normal -0 0 1
    outer loop
      vertex 6.20434 3.10226 2
      vertex 10 0 2
      vertex 6.20594 3.10359 2
    endloop
  endfacet
  facet normal -0 0 1
    outer loop
      vertex 6.20246 3.10138 2
      vertex 10 0 2
      vertex 6.20434 3.10226 2
    endloop
  endfacet
  facet normal -0 0 1
    outer loop
      vertex 5.69456 2.86238 2
      vertex 10 0 2
      vertex 6.20246 3.10138 2
    endloop
  endfacet
  facet normal -0 0 1
    outer loop
      vertex 5.69251 2.86199 2
      vertex 10 0 2
      vertex 5.69456 2.86238 2
    endloop
  endfacet
  facet normal -0 0 1
    outer loop
      vertex 5.14113 2.7568 2
      vertex 10 0 2
      vertex 5.69251 2.86199 2
    endloop
  endfacet
  facet normal 0 0 1
    outer loop
      vertex 0 0 2
      vertex 5.14113 2.7568 2
      vertex 4.58091 2.79205 2
    endloop
  endfacet
  facet normal 0 0 1
    outer loop
      vertex 0 0 2
      vertex 4.58091 2.79205 2
      vertex 4.57884 2.79218 2
    endloop
  endfacet
  facet normal 0 0 1
    outer loop
      vertex 0 0 2
      vertex 4.57884 2.79218 2
      vertex 4.57686 2.79282 2
    endloop
  endfacet
  facet normal 0 0 1
    outer loop
      vertex 0 0 2
      vertex 4.57686 2.79282 2
      vertex 4.043 2.96628 2
    endloop
  endfacet
  facet normal 0 0 1
    outer loop
      vertex 0 0 2
      vertex 3.18305 3.67736 2
      vertex 3.18163 3.67888 2
    endloop
  endfacet
  facet normal 0 0 1
    outer loop
      vertex 0 0 2
      vertex 3.18063 3.6807 2
      vertex 2.91021 4.17259 2
    endloop
  endfacet
  facet normal 0 0 1
    outer loop
      vertex 0 0 2
      vertex 2.77009 4.7183 2
      vertex 0 10 2
    endloop
  endfacet
  facet normal 0 0 1
    outer loop
      vertex 2.77009 4.7183 2
      vertex 0 0 2
      vertex 2.77061 4.71628 2
    endloop
  endfacet
  facet normal 0 0 1
    outer loop
      vertex 5.14113 2.7568 2
      vertex 0 0 2
      vertex 10 0 2
    endloop
  endfacet
  facet normal 0 0 1
    outer loop
      vertex 4.04125 2.9674 2
      vertex 0 0 2
      vertex 4.043 2.96628 2
    endloop
  endfacet
  facet normal 0 0 1
    outer loop
      vertex 3.56731 3.26817 2
      vertex 0 0 2
      vertex 4.04125 2.9674 2
    endloop
  endfacet
  facet normal 0 0 1
    outer loop
      vertex 3.18305 3.67736 2
      vertex 0 0 2
      vertex 3.56731 3.26817 2
    endloop
  endfacet
  facet normal 0 0 1
    outer loop
      vertex 3.18063 3.6807 2
      vertex 0 0 2
      vertex 3.18163 3.67888 2
    endloop
  endfacet
  facet normal 0 0 1
    outer loop
      vertex 2.77061 4.71628 2
      vertex 0 0 2
      vertex 2.91021 4.17259 2
    endloop
  endfacet
  facet normal 0 0 -1
    outer loop
      vertex 6.77035 5.02652 0
      vertex 10 0 0
      vertex 6.7737 5 0
    endloop
  endfacet
  facet normal 0 0 -1
    outer loop
      vertex 10 0 0
      vertex 6.77035 4.97348 0
      vertex 6.7737 5 0
    endloop
  endfacet
  facet normal 0 0 -1
    outer loop
      vertex 10 0 0
      vertex 6.71797 4.5589 0
      vertex 6.77035 4.97348 0
    endloop
  endfacet
  facet normal 0 0 -1
    outer loop
      vertex 10 0 0
      vertex 6.56414 4.17037 0
      vertex 6.71797 4.5589 0
    endloop
  endfacet
  facet normal 0 0 -1
    outer loop
      vertex 10 0 0
      vertex 6.5543 4.14551 0
      vertex 6.56414 4.17037 0
    endloop
  endfacet
  facet normal 0 0 -1
    outer loop
      vertex 10 0 0
      vertex 6.30868 3.80745 0
      vertex 6.5543 4.14551 0
    endloop
  endfacet
  facet normal 0 0 -1
    outer loop
      vertex 10 0 0
      vertex 6.29297 3.78582 0
      vertex 6.30868 3.80745 0
    endloop
  endfacet
  facet normal 0 0 -1
    outer loop
      vertex 10 0 0
      vertex 6.27237 3.76878 0
      vertex 6.29297 3.78582 0
    endloop
  endfacet
  facet normal 0 0 -1
    outer loop
      vertex 10 0 0
      vertex 5.95039 3.50242 0
      vertex 6.27237 3.76878 0
    endloop
  endfacet
  facet normal 0 0 -1
    outer loop
      vertex 10 0 0
      vertex 5.57229 3.32449 0
      vertex 5.95039 3.50242 0
    endloop
  endfacet
  facet normal 0 0 -1
    outer loop
      vertex 10 0 0
      vertex 5.5481 3.31311 0
      vertex 5.57229 3.32449 0
    endloop
  endfacet
  facet normal 0 0 -1
    outer loop
      vertex 10 0 0
      vertex 5.13763 3.23481 0
      vertex 5.5481 3.31311 0
    endloop
  endfacet
  facet normal 0 0 -1
    outer loop
      vertex 10 0 0
      vertex 5.11137 3.2298 0
      vertex 5.13763 3.23481 0
    endloop
  endfacet
  facet normal 0 0 -1
    outer loop
      vertex 0 0 0
      vertex 5.11137 3.2298 0
      vertex 10 0 0
    endloop
  endfacet
  facet normal -0 0 -1
    outer loop
      vertex 5.11137 3.2298 0
      vertex 0 0 0
      vertex 5.08469 3.23148 0
    endloop
  endfacet
  facet normal -0 0 -1
    outer loop
      vertex 5.08469 3.23148 0
      vertex 0 0 0
      vertex 4.66764 3.25772 0
    endloop
  endfacet
  facet normal -0 0 -1
    outer loop
      vertex 4.66764 3.25772 0
      vertex 0 0 0
      vertex 4.27022 3.38685 0
    endloop
  endfacet
  facet normal 0 0 -1
    outer loop
      vertex 0 0 0
      vertex 3.8511 3.65283 0
      vertex 3.8694 3.63334 0
    endloop
  endfacet
  facet normal 0 0 -1
    outer loop
      vertex 0 0 0
      vertex 3.34421 4.37295 0
      vertex 3.35086 4.34706 0
    endloop
  endfacet
  facet normal -0 0 -1
    outer loop
      vertex 3.24029 4.7777 0
      vertex 0 0 0
      vertex 3.24029 5.2223 0
    endloop
  endfacet
  facet normal -0 0 -1
    outer loop
      vertex 3.34421 4.37295 0
      vertex 0 0 0
      vertex 3.24029 4.7777 0
    endloop
  endfacet
  facet normal -0 0 -1
    outer loop
      vertex 3.36374 4.32363 0
      vertex 0 0 0
      vertex 3.35086 4.34706 0
    endloop
  endfacet
  facet normal -0 0 -1
    outer loop
      vertex 3.56505 3.95745 0
      vertex 0 0 0
      vertex 3.36374 4.32363 0
    endloop
  endfacet
  facet normal -0 0 -1
    outer loop
      vertex 3.8511 3.65283 0
      vertex 0 0 0
      vertex 3.56505 3.95745 0
    endloop
  endfacet
  facet normal -0 0 -1
    outer loop
      vertex 3.89197 3.61902 0
      vertex 0 0 0
      vertex 3.8694 3.63334 0
    endloop
  endfacet
  facet normal -0 0 -1
    outer loop
      vertex 4.2448 3.39511 0
      vertex 0 0 0
      vertex 3.89197 3.61902 0
    endloop
  endfacet
  facet normal -0 0 -1
    outer loop
      vertex 4.27022 3.38685 0
      vertex 0 0 0
      vertex 4.2448 3.39511 0
    endloop
  endfacet
  facet normal 0 0 -1
    outer loop
      vertex 10 0 0
      vertex 6.77035 5.02652 0
      vertex 10 12 0
    endloop
  endfacet
  facet normal 0 0 -1
    outer loop
      vertex 6.71797 5.4411 0
      vertex 10 12 0
      vertex 6.77035 5.02652 0
    endloop
  endfacet
  facet normal 0 0 -1
    outer loop
      vertex 6.56414 5.82963 0
      vertex 10 12 0
      vertex 6.71797 5.4411 0
    endloop
  endfacet
  facet normal 0 0 -1
    outer loop
      vertex 6.5543 5.85448 0
      vertex 10 12 0
      vertex 6.56414 5.82963 0
    endloop
  endfacet
  facet normal 0 0 -1
    outer loop
      vertex 6.30868 6.19255 0
      vertex 10 12 0
      vertex 6.5543 5.85448 0
    endloop
  endfacet
  facet normal 0 0 -1
    outer loop
      vertex 6.29297 6.21418 0
      vertex 10 12 0
      vertex 6.30868 6.19255 0
    endloop
  endfacet
  facet normal 0 0 -1
    outer loop
      vertex 6.27237 6.23122 0
      vertex 10 12 0
      vertex 6.29297 6.21418 0
    endloop
  endfacet
  facet normal 0 0 -1
    outer loop
      vertex 5.95039 6.49758 0
      vertex 10 12 0
      vertex 6.27237 6.23122 0
    endloop
  endfacet
  facet normal 0 0 -1
    outer loop
      vertex 5.57229 6.6755 0
      vertex 10 12 0
      vertex 5.95039 6.49758 0
    endloop
  endfacet
  facet normal 0 0 -1
    outer loop
      vertex 5.5481 6.68689 0
      vertex 10 12 0
      vertex 5.57229 6.6755 0
    endloop
  endfacet
  facet normal 0 0 -1
    outer loop
      vertex 5.13763 6.76519 0
      vertex 10 12 0
      vertex 5.5481 6.68689 0
    endloop
  endfacet
  facet normal 0 0 -1
    outer loop
      vertex 5.11137 6.7702 0
      vertex 10 12 0
      vertex 5.13763 6.76519 0
    endloop
  endfacet
  facet normal 0 0 -1
    outer loop
      vertex 0 12 0
      vertex 5.11137 6.7702 0
      vertex 5.08469 6.76852 0
    endloop
  endfacet
  facet normal 0 0 -1
    outer loop
      vertex 0 12 0
      vertex 5.08469 6.76852 0
      vertex 4.66764 6.74228 0
    endloop
  endfacet
  facet normal 0 0 -1
    outer loop
      vertex 0 12 0
      vertex 4.66764 6.74228 0
      vertex 4.27022 6.61315 0
    endloop
  endfacet
  facet normal 0 0 -1
    outer loop
      vertex 0 12 0
      vertex 4.27022 6.61315 0
      vertex 4.2448 6.60489 0
    endloop
  endfacet
  facet normal 0 0 -1
    outer loop
      vertex 0 12 0
      vertex 4.2448 6.60489 0
      vertex 3.89197 6.38098 0
    endloop
  endfacet
  facet normal 0 0 -1
    outer loop
      vertex 0 12 0
      vertex 3.89197 6.38098 0
      vertex 3.8694 6.36666 0
    endloop
  endfacet
  facet normal 0 0 -1
    outer loop
      vertex 0 12 0
      vertex 3.34421 5.62705 0
      vertex 3.24029 5.2223 0
    endloop
  endfacet
  facet normal 0 0 -1
    outer loop
      vertex 0 12 0
      vertex 3.24029 5.2223 0
      vertex 0 0 0
    endloop
  endfacet
  facet normal 0 0 -1
    outer loop
      vertex 3.34421 5.62705 0
      vertex 0 12 0
      vertex 3.35086 5.65294 0
    endloop
  endfacet
  facet normal 0 0 -1
    outer loop
      vertex 3.35086 5.65294 0
      vertex 0 12 0
      vertex 3.36374 5.67636 0
    endloop
  endfacet
  facet normal 0 0 -1
    outer loop
      vertex 5.11137 6.7702 0
      vertex 0 12 0
      vertex 10 12 0
    endloop
  endfacet
  facet normal 0 0 -1
    outer loop
      vertex 3.8511 6.34717 0
      vertex 0 12 0
      vertex 3.8694 6.36666 0
    endloop
  endfacet
  facet normal 0 0 -1
    outer loop
      vertex 3.56505 6.04255 0
      vertex 0 12 0
      vertex 3.8511 6.34717 0
    endloop
  endfacet
  facet normal 0 0 -1
    outer loop
      vertex 3.36374 5.67636 0
      vertex 0 12 0
      vertex 3.56505 6.04255 0
    endloop
  endfacet
  facet normal 0 -1 0
    outer loop
      vertex 0 0 0
      vertex 10 0 2
      vertex 0 0 2
    endloop
  endfacet
  facet normal 0 -1 -0
    outer loop
      vertex 10 0 2
      vertex 0 0 0
      vertex 10 0 0
    endloop
  endfacet
  facet normal 0 1 -0
    outer loop
      vertex 10 12 0
      vertex 0 12 6.5
      vertex 10 12 6.5
    endloop
  endfacet
  facet normal 0 1 0
    outer loop
      vertex 0 12 6.5
      vertex 10 12 0
      vertex 0 12 0
    endloop
  endfacet
  facet normal -0.182409 0.956217 0.228859
    outer loop
      vertex 5.13763 3.23481 0
      vertex 5.14113 2.7568 2
      vertex 5.69251 2.86199 2
    endloop
  endfacet
  facet normal -0.182399 0.956219 0.228859
    outer loop
      vertex 5.14113 2.7568 2
      vertex 5.13763 3.23481 0
      vertex 5.11137 3.2298 0
    endloop
  endfacet
  facet normal -0.965785 -0.121995 0.228859
    outer loop
      vertex 7.24763 5 2
      vertex 6.77035 5.02652 0
      vertex 6.7737 5 0
    endloop
  endfacet
  facet normal -0.965783 -0.122008 0.228859
    outer loop
      vertex 6.77035 5.02652 0
      vertex 7.24763 5 2
      vertex 7.17728 5.5569 2
    endloop
  endfacet
  facet normal -0.965794 -0.121925 0.228857
    outer loop
      vertex 6.71797 5.4411 0
      vertex 7.17728 5.5569 2
      vertex 7.17702 5.55896 2
    endloop
  endfacet
  facet normal -0.965783 -0.122009 0.228859
    outer loop
      vertex 7.17728 5.5569 2
      vertex 6.71797 5.4411 0
      vertex 6.77035 5.02652 0
    endloop
  endfacet
  facet normal 0.942891 0.24203 0.228861
    outer loop
      vertex 2.77061 4.71628 2
      vertex 3.24029 4.7777 0
      vertex 2.77009 4.7183 2
    endloop
  endfacet
  facet normal 0.942877 0.242089 0.228859
    outer loop
      vertex 3.24029 4.7777 0
      vertex 2.77061 4.71628 2
      vertex 3.34421 4.37295 0
    endloop
  endfacet
  facet normal 0.853055 -0.468957 0.228859
    outer loop
      vertex 3.18063 6.3193 2
      vertex 3.56505 6.04255 0
      vertex 3.18163 6.32112 2
    endloop
  endfacet
  facet normal 0.853049 -0.468968 0.228859
    outer loop
      vertex 3.56505 6.04255 0
      vertex 3.18063 6.3193 2
      vertex 3.36374 5.67636 0
    endloop
  endfacet
  facet normal -0.905098 0.358358 0.228859
    outer loop
      vertex 6.96961 3.9172 2
      vertex 6.56414 4.17037 0
      vertex 6.5543 4.14551 0
    endloop
  endfacet
  facet normal -0.905099 0.358356 0.228859
    outer loop
      vertex 6.56414 4.17037 0
      vertex 6.96961 3.9172 2
      vertex 7.17625 4.4391 2
    endloop
  endfacet
  facet normal -0.965785 0.121995 0.228859
    outer loop
      vertex 6.77035 4.97348 0
      vertex 7.24763 5 2
      vertex 6.7737 5 0
    endloop
  endfacet
  facet normal -0.965784 0.122008 0.228859
    outer loop
      vertex 7.24763 5 2
      vertex 6.77035 4.97348 0
      vertex 7.17728 4.4431 2
    endloop
  endfacet
  facet normal -0.182444 0.95621 0.22886
    outer loop
      vertex 5.5481 3.31311 0
      vertex 5.69251 2.86199 2
      vertex 5.69456 2.86238 2
    endloop
  endfacet
  facet normal -0.182409 0.956217 0.228859
    outer loop
      vertex 5.69251 2.86199 2
      vertex 5.5481 3.31311 0
      vertex 5.13763 3.23481 0
    endloop
  endfacet
  facet normal -0.620507 0.750063 0.228859
    outer loop
      vertex 6.29297 3.78582 0
      vertex 6.20594 3.10359 2
      vertex 6.63845 3.46139 2
    endloop
  endfacet
  facet normal -0.620506 0.750064 0.228859
    outer loop
      vertex 6.20594 3.10359 2
      vertex 6.29297 3.78582 0
      vertex 6.27237 3.76878 0
    endloop
  endfacet
  facet normal 0.0611815 -0.971535 0.228861
    outer loop
      vertex 4.66764 6.74228 0
      vertex 4.58091 7.20795 2
      vertex 4.57884 7.20782 2
    endloop
  endfacet
  facet normal 0.0611256 -0.971539 0.228859
    outer loop
      vertex 4.58091 7.20795 2
      vertex 4.66764 6.74228 0
      vertex 5.08469 6.76852 0
    endloop
  endfacet
  facet normal -0.620419 0.750129 0.228883
    outer loop
      vertex 6.27237 3.76878 0
      vertex 6.20434 3.10226 2
      vertex 6.20594 3.10359 2
    endloop
  endfacet
  facet normal -0.620506 0.750064 0.228859
    outer loop
      vertex 6.20434 3.10226 2
      vertex 6.27237 3.76878 0
      vertex 5.95039 3.50242 0
    endloop
  endfacet
  facet normal 0.0611195 0.971539 0.228859
    outer loop
      vertex 5.08469 3.23148 0
      vertex 5.14113 2.7568 2
      vertex 5.11137 3.2298 0
    endloop
  endfacet
  facet normal 0.0611239 0.971539 0.228859
    outer loop
      vertex 5.14113 2.7568 2
      vertex 5.08469 3.23148 0
      vertex 4.58091 2.79205 2
    endloop
  endfacet
  facet normal 0.942876 0.242091 0.228859
    outer loop
      vertex 2.91021 4.17259 2
      vertex 3.34421 4.37295 0
      vertex 2.77061 4.71628 2
    endloop
  endfacet
  facet normal 0.942877 0.242088 0.228859
    outer loop
      vertex 3.34421 4.37295 0
      vertex 2.91021 4.17259 2
      vertex 3.35086 4.34706 0
    endloop
  endfacet
  facet normal -0.905098 -0.358358 0.228859
    outer loop
      vertex 6.56414 5.82963 0
      vertex 6.96961 6.0828 2
      vertex 6.5543 5.85448 0
    endloop
  endfacet
  facet normal -0.905099 -0.358356 0.228859
    outer loop
      vertex 6.96961 6.0828 2
      vertex 6.56414 5.82963 0
      vertex 7.17625 5.5609 2
    endloop
  endfacet
  facet normal -0.965783 0.122009 0.228859
    outer loop
      vertex 6.71797 4.5589 0
      vertex 7.17728 4.4431 2
      vertex 6.77035 4.97348 0
    endloop
  endfacet
  facet normal -0.965794 0.121925 0.228857
    outer loop
      vertex 7.17728 4.4431 2
      vertex 6.71797 4.5589 0
      vertex 7.17702 4.44104 2
    endloop
  endfacet
  facet normal -0.905107 0.358337 0.22886
    outer loop
      vertex 6.71797 4.5589 0
      vertex 7.17625 4.4391 2
      vertex 7.17702 4.44104 2
    endloop
  endfacet
  facet normal -0.9051 0.358354 0.228859
    outer loop
      vertex 7.17625 4.4391 2
      vertex 6.71797 4.5589 0
      vertex 6.56414 4.17037 0
    endloop
  endfacet
  facet normal -0.787546 0.572184 0.228859
    outer loop
      vertex 6.29297 3.78582 0
      vertex 6.96839 3.91551 2
      vertex 6.30868 3.80745 0
    endloop
  endfacet
  facet normal -0.787546 0.572185 0.228859
    outer loop
      vertex 6.96839 3.91551 2
      vertex 6.29297 3.78582 0
      vertex 6.63845 3.46139 2
    endloop
  endfacet
  facet normal -0.787546 0.572184 0.228859
    outer loop
      vertex 6.30868 3.80745 0
      vertex 6.96961 3.9172 2
      vertex 6.5543 4.14551 0
    endloop
  endfacet
  facet normal -0.787596 0.572107 0.22888
    outer loop
      vertex 6.96961 3.9172 2
      vertex 6.30868 3.80745 0
      vertex 6.96839 3.91551 2
    endloop
  endfacet
  facet normal -0.414496 0.880804 0.228859
    outer loop
      vertex 5.95039 3.50242 0
      vertex 6.20246 3.10138 2
      vertex 6.20434 3.10226 2
    endloop
  endfacet
  facet normal -0.414479 0.880812 0.228859
    outer loop
      vertex 6.20246 3.10138 2
      vertex 5.95039 3.50242 0
      vertex 5.57229 3.32449 0
    endloop
  endfacet
  facet normal -0.414478 0.880813 0.228859
    outer loop
      vertex 5.57229 3.32449 0
      vertex 5.69456 2.86238 2
      vertex 6.20246 3.10138 2
    endloop
  endfacet
  facet normal -0.414479 0.880813 0.228859
    outer loop
      vertex 5.69456 2.86238 2
      vertex 5.57229 3.32449 0
      vertex 5.5481 3.31311 0
    endloop
  endfacet
  facet normal 0.85305 0.468966 0.228859
    outer loop
      vertex 2.91021 4.17259 2
      vertex 3.36374 4.32363 0
      vertex 3.35086 4.34706 0
    endloop
  endfacet
  facet normal 0.853049 0.468967 0.228859
    outer loop
      vertex 3.36374 4.32363 0
      vertex 2.91021 4.17259 2
      vertex 3.18063 3.6807 2
    endloop
  endfacet
  facet normal 0.709605 0.666399 0.228853
    outer loop
      vertex 3.8511 3.65283 0
      vertex 3.18163 3.67888 2
      vertex 3.18305 3.67736 2
    endloop
  endfacet
  facet normal 0.709622 0.666379 0.228859
    outer loop
      vertex 3.18163 3.67888 2
      vertex 3.8511 3.65283 0
      vertex 3.56505 3.95745 0
    endloop
  endfacet
  facet normal 0.300816 0.925815 0.228859
    outer loop
      vertex 4.27022 3.38685 0
      vertex 4.043 2.96628 2
      vertex 4.57686 2.79282 2
    endloop
  endfacet
  facet normal 0.300822 0.925813 0.228859
    outer loop
      vertex 4.043 2.96628 2
      vertex 4.27022 3.38685 0
      vertex 4.2448 3.39511 0
    endloop
  endfacet
  facet normal 0.709605 -0.666399 0.228853
    outer loop
      vertex 3.18163 6.32112 2
      vertex 3.8511 6.34717 0
      vertex 3.18305 6.32264 2
    endloop
  endfacet
  facet normal 0.709622 -0.666379 0.228859
    outer loop
      vertex 3.8511 6.34717 0
      vertex 3.18163 6.32112 2
      vertex 3.56505 6.04255 0
    endloop
  endfacet
  facet normal 0.97346 0 0.228859
    outer loop
      vertex 2.77009 5.2817 2
      vertex 3.24029 4.7777 0
      vertex 3.24029 5.2223 0
    endloop
  endfacet
  facet normal 0.97346 0 0.228859
    outer loop
      vertex 3.24029 4.7777 0
      vertex 2.77009 5.2817 2
      vertex 2.77009 4.7183 2
    endloop
  endfacet
  facet normal 0.5216 -0.821922 0.22886
    outer loop
      vertex 3.89197 6.38098 0
      vertex 4.043 7.03372 2
      vertex 4.04125 7.0326 2
    endloop
  endfacet
  facet normal 0.521606 -0.821919 0.228859
    outer loop
      vertex 4.043 7.03372 2
      vertex 3.89197 6.38098 0
      vertex 4.2448 6.60489 0
    endloop
  endfacet
  facet normal 0.0611239 -0.971539 0.228859
    outer loop
      vertex 5.08469 6.76852 0
      vertex 5.14113 7.2432 2
      vertex 4.58091 7.20795 2
    endloop
  endfacet
  facet normal 0.0611282 -0.971539 0.228859
    outer loop
      vertex 5.14113 7.2432 2
      vertex 5.08469 6.76852 0
      vertex 5.11137 6.7702 0
    endloop
  endfacet
  facet normal -0.414486 -0.880809 0.228858
    outer loop
      vertex 5.57229 6.6755 0
      vertex 5.69456 7.13762 2
      vertex 5.5481 6.68689 0
    endloop
  endfacet
  facet normal -0.414478 -0.880813 0.228859
    outer loop
      vertex 5.69456 7.13762 2
      vertex 5.57229 6.6755 0
      vertex 6.20246 6.89862 2
    endloop
  endfacet
  facet normal 0.853049 0.468968 0.228859
    outer loop
      vertex 3.18063 3.6807 2
      vertex 3.56505 3.95745 0
      vertex 3.36374 4.32363 0
    endloop
  endfacet
  facet normal 0.853055 0.468957 0.228859
    outer loop
      vertex 3.56505 3.95745 0
      vertex 3.18063 3.6807 2
      vertex 3.18163 3.67888 2
    endloop
  endfacet
  facet normal 0.709625 0.666375 0.22886
    outer loop
      vertex 3.18305 3.67736 2
      vertex 3.8694 3.63334 0
      vertex 3.8511 3.65283 0
    endloop
  endfacet
  facet normal 0.709621 0.66638 0.228859
    outer loop
      vertex 3.8694 3.63334 0
      vertex 3.18305 3.67736 2
      vertex 3.56731 3.26817 2
    endloop
  endfacet
  facet normal 0.0611261 0.971539 0.228859
    outer loop
      vertex 4.66764 3.25772 0
      vertex 4.58091 2.79205 2
      vertex 5.08469 3.23148 0
    endloop
  endfacet
  facet normal 0.0610703 0.971542 0.228858
    outer loop
      vertex 4.58091 2.79205 2
      vertex 4.66764 3.25772 0
      vertex 4.57884 2.79218 2
    endloop
  endfacet
  facet normal 0.300893 0.92579 0.228857
    outer loop
      vertex 4.66764 3.25772 0
      vertex 4.57686 2.79282 2
      vertex 4.57884 2.79218 2
    endloop
  endfacet
  facet normal 0.300815 0.925815 0.228859
    outer loop
      vertex 4.57686 2.79282 2
      vertex 4.66764 3.25772 0
      vertex 4.27022 3.38685 0
    endloop
  endfacet
  facet normal 0.521605 0.821919 0.228859
    outer loop
      vertex 3.8694 3.63334 0
      vertex 4.04125 2.9674 2
      vertex 3.89197 3.61902 0
    endloop
  endfacet
  facet normal 0.521606 0.821919 0.228859
    outer loop
      vertex 4.04125 2.9674 2
      vertex 3.8694 3.63334 0
      vertex 3.56731 3.26817 2
    endloop
  endfacet
  facet normal 0.521605 0.821919 0.228859
    outer loop
      vertex 3.89197 3.61902 0
      vertex 4.043 2.96628 2
      vertex 4.2448 3.39511 0
    endloop
  endfacet
  facet normal 0.5216 0.821922 0.22886
    outer loop
      vertex 4.043 2.96628 2
      vertex 3.89197 3.61902 0
      vertex 4.04125 2.9674 2
    endloop
  endfacet
  facet normal 0.942891 -0.24203 0.228861
    outer loop
      vertex 3.24029 5.2223 0
      vertex 2.77061 5.28372 2
      vertex 2.77009 5.2817 2
    endloop
  endfacet
  facet normal 0.942877 -0.242089 0.228859
    outer loop
      vertex 2.77061 5.28372 2
      vertex 3.24029 5.2223 0
      vertex 3.34421 5.62705 0
    endloop
  endfacet
  facet normal -0.620506 -0.750064 0.228859
    outer loop
      vertex 6.27237 6.23122 0
      vertex 6.20434 6.89774 2
      vertex 5.95039 6.49758 0
    endloop
  endfacet
  facet normal -0.620419 -0.750129 0.228883
    outer loop
      vertex 6.20434 6.89774 2
      vertex 6.27237 6.23122 0
      vertex 6.20594 6.89641 2
    endloop
  endfacet
  facet normal -0.620501 -0.750068 0.228861
    outer loop
      vertex 6.29297 6.21418 0
      vertex 6.20594 6.89641 2
      vertex 6.27237 6.23122 0
    endloop
  endfacet
  facet normal -0.620507 -0.750063 0.228859
    outer loop
      vertex 6.20594 6.89641 2
      vertex 6.29297 6.21418 0
      vertex 6.63845 6.53861 2
    endloop
  endfacet
  facet normal -0.787549 -0.57218 0.22886
    outer loop
      vertex 6.96839 6.08449 2
      vertex 6.29297 6.21418 0
      vertex 6.30868 6.19255 0
    endloop
  endfacet
  facet normal -0.787546 -0.572185 0.228859
    outer loop
      vertex 6.29297 6.21418 0
      vertex 6.96839 6.08449 2
      vertex 6.63845 6.53861 2
    endloop
  endfacet
  facet normal 0.942877 -0.242088 0.228859
    outer loop
      vertex 2.91021 5.82741 2
      vertex 3.34421 5.62705 0
      vertex 3.35086 5.65294 0
    endloop
  endfacet
  facet normal 0.942876 -0.242091 0.228859
    outer loop
      vertex 3.34421 5.62705 0
      vertex 2.91021 5.82741 2
      vertex 2.77061 5.28372 2
    endloop
  endfacet
  facet normal 0.853049 -0.468967 0.228859
    outer loop
      vertex 2.91021 5.82741 2
      vertex 3.36374 5.67636 0
      vertex 3.18063 6.3193 2
    endloop
  endfacet
  facet normal 0.85305 -0.468966 0.228859
    outer loop
      vertex 3.36374 5.67636 0
      vertex 2.91021 5.82741 2
      vertex 3.35086 5.65294 0
    endloop
  endfacet
  facet normal 0.521606 -0.821919 0.228859
    outer loop
      vertex 3.8694 6.36666 0
      vertex 4.04125 7.0326 2
      vertex 3.56731 6.73183 2
    endloop
  endfacet
  facet normal 0.521599 -0.821923 0.228861
    outer loop
      vertex 4.04125 7.0326 2
      vertex 3.8694 6.36666 0
      vertex 3.89197 6.38098 0
    endloop
  endfacet
  facet normal 0.709621 -0.66638 0.228859
    outer loop
      vertex 3.18305 6.32264 2
      vertex 3.8694 6.36666 0
      vertex 3.56731 6.73183 2
    endloop
  endfacet
  facet normal 0.709621 -0.66638 0.228859
    outer loop
      vertex 3.8694 6.36666 0
      vertex 3.18305 6.32264 2
      vertex 3.8511 6.34717 0
    endloop
  endfacet
  facet normal 0.300814 -0.925816 0.228859
    outer loop
      vertex 4.27022 6.61315 0
      vertex 4.043 7.03372 2
      vertex 4.2448 6.60489 0
    endloop
  endfacet
  facet normal 0.300816 -0.925815 0.228859
    outer loop
      vertex 4.043 7.03372 2
      vertex 4.27022 6.61315 0
      vertex 4.57686 7.20718 2
    endloop
  endfacet
  facet normal 0.300815 -0.925815 0.228859
    outer loop
      vertex 4.66764 6.74228 0
      vertex 4.57686 7.20718 2
      vertex 4.27022 6.61315 0
    endloop
  endfacet
  facet normal 0.300792 -0.925823 0.22886
    outer loop
      vertex 4.57686 7.20718 2
      vertex 4.66764 6.74228 0
      vertex 4.57884 7.20782 2
    endloop
  endfacet
  facet normal -0.182408 -0.956217 0.228859
    outer loop
      vertex 5.13763 6.76519 0
      vertex 5.14113 7.2432 2
      vertex 5.11137 6.7702 0
    endloop
  endfacet
  facet normal -0.182409 -0.956217 0.228859
    outer loop
      vertex 5.14113 7.2432 2
      vertex 5.13763 6.76519 0
      vertex 5.69251 7.13801 2
    endloop
  endfacet
  facet normal -0.414479 -0.880813 0.228859
    outer loop
      vertex 5.95039 6.49758 0
      vertex 6.20246 6.89862 2
      vertex 5.57229 6.6755 0
    endloop
  endfacet
  facet normal -0.414678 -0.880717 0.228865
    outer loop
      vertex 6.20246 6.89862 2
      vertex 5.95039 6.49758 0
      vertex 6.20434 6.89774 2
    endloop
  endfacet
  facet normal -0.9051 -0.358354 0.228859
    outer loop
      vertex 6.71797 5.4411 0
      vertex 7.17625 5.5609 2
      vertex 6.56414 5.82963 0
    endloop
  endfacet
  facet normal -0.905107 -0.358337 0.22886
    outer loop
      vertex 7.17625 5.5609 2
      vertex 6.71797 5.4411 0
      vertex 7.17702 5.55896 2
    endloop
  endfacet
  facet normal -0.182409 -0.956217 0.228859
    outer loop
      vertex 5.5481 6.68689 0
      vertex 5.69251 7.13801 2
      vertex 5.13763 6.76519 0
    endloop
  endfacet
  facet normal -0.182444 -0.95621 0.22886
    outer loop
      vertex 5.69251 7.13801 2
      vertex 5.5481 6.68689 0
      vertex 5.69456 7.13762 2
    endloop
  endfacet
  facet normal -0.787596 -0.572107 0.22888
    outer loop
      vertex 6.30868 6.19255 0
      vertex 6.96961 6.0828 2
      vertex 6.96839 6.08449 2
    endloop
  endfacet
  facet normal -0.787546 -0.572184 0.228859
    outer loop
      vertex 6.96961 6.0828 2
      vertex 6.30868 6.19255 0
      vertex 6.5543 5.85448 0
    endloop
  endfacet
endsolid OpenSCAD_Model
